<svg xmlns="http://www.w3.org/2000/svg" width="16" height="6" fill="none" viewBox="0 0 16 6"><path fill="#F1F1F1" d="M296 6c-2.504 0-3.812-1.2-4.87-2.1652-.946-.8609-1.641-1.487-3.116-1.487-1.503 0-2.171.6261-3.117 1.487C283.84 4.8 282.532 6 280.028 6c-2.505 0-3.812-1.2-4.87-2.1652-.946-.8609-1.641-1.487-3.116-1.487s-2.171.6261-3.117 1.487C267.868 4.8 266.56 6 264.056 6c-2.505 0-3.813-1.2-4.87-2.1652-.946-.8609-1.642-1.487-3.116-1.487-1.503 0-2.171.6261-3.117 1.487C251.896 4.8 250.588 6 248.083 6c-2.504 0-3.812-1.2-4.869-2.1652-.946-.8609-1.642-1.487-3.117-1.487-1.502 0-2.17.6261-3.116 1.487C235.812 4.8 234.504 6 232 6s-3.812-1.2-4.87-2.1652c-.946-.8609-1.641-1.487-3.116-1.487-1.503 0-2.171.6261-3.117 1.487C219.84 4.8 218.532 6 216.028 6c-2.505 0-3.812-1.2-4.87-2.1652-.946-.8609-1.641-1.487-3.116-1.487-1.503 0-2.171.6261-3.117 1.487C203.812 4.8 202.504 6 200 6s-3.812-1.2-4.87-2.1652c-.946-.8609-1.641-1.487-3.116-1.487-1.503 0-2.171.6261-3.117 1.487C187.84 4.8 186.532 6 184.028 6c-2.505 0-3.812-1.2-4.87-2.1652-.946-.8609-1.641-1.487-3.116-1.487s-2.171.6261-3.117 1.487C171.84 4.8 170.504 6 168 6s-3.812-1.2-4.87-2.1652c-.946-.8609-1.641-1.487-3.116-1.487-1.503 0-2.171.6261-3.117 1.487C155.84 4.8 154.532 6 152.028 6c-2.505 0-3.812-1.2-4.87-2.1652-.946-.8609-1.641-1.487-3.116-1.487-1.503 0-2.171.6261-3.117 1.487C139.868 4.8 138.56 6 136.056 6c-2.505 0-3.813-1.2-4.87-2.1652-.946-.8609-1.642-1.487-3.116-1.487-1.475 0-2.171.6261-3.117 1.487C123.896 4.8 122.588 6 120.083 6c-2.504 0-3.812-1.2-4.869-2.1652-.946-.8609-1.642-1.487-3.117-1.487-1.502 0-2.17.6261-3.116 1.487C107.923 4.8 106.616 6 104.111 6c-2.504 0-3.812-1.2-4.8693-2.1652-.9461-.8609-1.6417-1.487-3.1165-1.487-1.5026 0-2.1704.6261-3.1165 1.487C91.9513 4.8 90.6435 6 88.1391 6c-2.5043 0-3.8121-1.2-4.8695-2.1652-.9461-.8609-1.6418-1.487-3.1166-1.487-1.5026 0-2.1704.6261-3.1165 1.487C75.9791 4.8 74.6713 6 72.167 6c-2.5044 0-3.8122-1.2-4.8696-2.1652-.9461-.8609-1.6418-1.487-3.1165-1.487-1.4748 0-2.1705.6261-3.1166 1.487C60.007 4.8 58.6991 6 56.1948 6c-2.5044 0-3.8122-1.2-4.8696-2.1652-.9461-.8609-1.6417-1.487-3.1165-1.487-1.5026 0-2.1704.6261-3.1165 1.487C44.0348 4.8 42.727 6 40.2226 6c-2.5043 0-3.8122-1.2-4.8696-2.1652-.946-.8609-1.6417-1.487-3.1165-1.487-1.5026 0-2.1704.6261-3.1165 1.487C28.0626 4.8 26.7548 6 24.2504 6c-2.5043 0-3.8121-1.2-4.8695-2.1652-.9461-.8609-1.6418-1.487-3.1166-1.487-1.5026 0-2.1704.6261-3.1165 1.487C11.84 4.8 10.5043 6 8 6S4.1878 4.8 3.1304 3.8348c-.946-.8609-1.6417-1.487-3.1165-1.487-1.5026 0-2.1704.6261-3.1165 1.487C-4.16 4.8-5.4678 6-7.9722 6c-2.5043 0-3.8121-1.2-4.8695-2.1652-.974-.8609-1.6696-1.487-3.1444-1.487-1.5026 0-2.1704.6261-3.1165 1.487C-20.1878 4.8-21.4957 6-24 6V3.6522c1.5026 0 2.1704-.6261 3.1165-1.487C-19.8261 1.2-18.5183 0-15.9861 0c2.5044 0 3.8122 1.2 4.8696 2.1652.9461.8609 1.6417 1.487 3.1165 1.487 1.5026 0 2.1704-.6261 3.1165-1.487C-3.826 1.2-2.4905 0 .014 0c2.5044 0 3.8122 1.2 4.8696 2.1652.946.8609 1.6417 1.487 3.1165 1.487 1.5026 0 2.1704-.6261 3.1165-1.487C12.1739 1.2 13.4817 0 15.9861 0c2.5043 0 3.8122 1.2 4.8695 2.1652.9461.8609 1.6418 1.487 3.1166 1.487 1.5026 0 2.1704-.6261 3.1165-1.487C28.1461 1.2 29.4539 0 31.9583 0c2.5043 0 3.8121 1.2 4.8695 2.1652.9461.8609 1.6418 1.487 3.1165 1.487 1.5027 0 2.1705-.6261 3.1166-1.487C44.1183 1.2 45.4261 0 47.9304 0c2.5044 0 3.8122 1.2 4.8696 2.1652.9461.8609 1.6417 1.487 3.1165 1.487 1.5026 0 2.1705-.6261 3.1165-1.487C60.0904 1.2 61.3983 0 63.9026 0c2.5044 0 3.8122 1.2 4.8696 2.1652.9461.8609 1.6417 1.487 3.1165 1.487 1.5026 0 2.1704-.6261 3.1165-1.487C76.0626 1.2 77.3704 0 79.8748 0c2.5043 0 3.8121 1.2 4.8695 2.1652.9461.8609 1.6418 1.487 3.1166 1.487 1.4747 0 2.1704-.6261 3.1165-1.487C92.0348 1.2 93.3426 0 95.847 0c2.5043 0 3.8121 1.2 4.87 2.1652.946.8609 1.641 1.487 3.116 1.487 1.503 0 2.17-.6261 3.117-1.487C108.007 1.2 109.315 0 111.819 0c2.504 0 3.812 1.2 4.87 2.1652.946.8609 1.641 1.487 3.116 1.487 1.503 0 2.171-.6261 3.117-1.487C123.979 1.2 125.287 0 127.791 0c2.505 0 3.812 1.2 4.87 2.1652.946.8609 1.642 1.487 3.116 1.487 1.503 0 2.171-.6261 3.117-1.487C139.951 1.2 141.259 0 143.763 0c2.505 0 3.813 1.2 4.87 2.1652.946.8609 1.642 1.487 3.117 1.487 1.502 0 2.17-.6261 3.116-1.487C155.923 1.2 157.231 0 159.736 0c2.504 0 3.812 1.2 4.869 2.1652.946.8609 1.642 1.487 3.117 1.487 1.502 0 2.17-.6261 3.116-1.487C171.896 1.2 173.203 0 175.708 0c2.504 0 3.812 1.2 4.869 2.1652.946.8609 1.642 1.487 3.117 1.487 1.503 0 2.17-.6261 3.116-1.487C187.868 1.2 189.176 0 191.68 0s3.812 1.2 4.87 2.1652c.946.8609 1.641 1.487 3.116 1.487 1.503 0 2.171-.6261 3.117-1.487C204.174 1.2 205.482 0 208.014 0c2.504 0 3.812 1.2 4.869 2.1652.947.8609 1.642 1.487 3.117 1.487s2.17-.6261 3.117-1.487C220.174 1.2 221.482 0 223.986 0c2.504 0 3.812 1.2 4.87 2.1652.946.8609 1.641 1.487 3.116 1.487s2.171-.6261 3.117-1.487C236.174 1.2 237.482 0 240.014 0s3.812 1.2 4.869 2.1652c.947.8609 1.642 1.487 3.117 1.487s2.17-.6261 3.117-1.487C252.174 1.2 253.482 0 255.986 0c2.504 0 3.812 1.2 4.87 2.1652.946.8609 1.641 1.487 3.116 1.487 1.503 0 2.171-.6261 3.117-1.487C268.146 1.2 269.454 0 271.958 0c2.505 0 3.812 1.2 4.87 2.1652.946.8609 1.642 1.487 3.116 1.487 1.475 0 2.171-.6261 3.117-1.487C284.118 1.2 285.426 0 287.93 0c2.505 0 3.813 1.2 4.87 2.1652.946.8609 1.642 1.487 3.116 1.487V6H296Z"/></svg>