<svg xmlns="http://www.w3.org/2000/svg" width="47" height="27" fill="none" viewBox="0 0 47 27"><path fill="#63D1BB" d="M43.0665 0H3.9335C1.7145 0 0 1.6813 0 3.8571V23.143C0 25.3187 1.7146 27 3.9335 27h39.133C45.2854 27 47 25.3187 47 23.1429V3.8571C47 1.7802 45.1845 0 43.0665 0ZM3.0258 24.7253V2.7693h40.545v21.956H3.0258Z"/><path fill="#63D1BB" d="M6.9592 20.8683h32.6782V6.6266H6.9592v14.2417ZM23.5 8.5057c2.9249 0 5.3455 2.3736 5.3455 5.2418 0 2.8681-2.4206 5.2417-5.3455 5.2417-2.9249 0-5.3455-2.3736-5.3455-5.2417 0-2.9671 2.4206-5.2418 5.3455-5.2418Z"/></svg>