<svg xmlns="http://www.w3.org/2000/svg" width="114" height="46" fill="none" viewBox="0 0 114 46"><path fill="#000" d="M110.889 41.8087c4.423.8981.804-35.822.1-38.2169-2.01-6.5857-26.8421-2.0954-32.3714-1.6963-12.7678.9978-25.3346-.9978-37.8007-.3991C34.5838 1.7957 5.7306-.2997 3.1167 3.492-1.91 10.6764.4023 29.2361 1.8097 38.516c-4.0213.7983 2.3123 4.1909 3.1166 4.8894 6.3336 2.1952 16.4875-.1996 23.1228.3991 15.4822 1.4967 31.9697-2.1952 47.5524-.9978 4.5241 1.0976 9.6513.9978 14.2758 1.1974 3.5187 5.5878 19.8047-2.3948 21.0117-2.1953-.101 0 .503.0998 0 0Z"/></svg>