<svg xmlns="http://www.w3.org/2000/svg" width="38" height="24" fill="none" viewBox="0 0 38 24"><path fill="#fff" d="M731.783 0c-9.641 0-9.641 9.8824-19.216 9.8824C702.992 9.8824 702.925 0 693.35 0c-9.574 0-9.641 9.8824-19.216 9.8824C664.492 9.8824 664.492 0 654.85 0c-9.641 0-9.641 9.8824-19.216 9.8824-9.642 0-9.642-9.8824-19.217-9.8824-9.641 0-9.641 9.8824-19.216 9.8824-9.575 0-9.843-9.8824-19.418-9.8824-9.641 0-9.641 9.8824-19.216 9.8824-9.575 0-9.709-9.8824-19.284-9.8824-9.641 0-9.641 9.8824-19.216 9.8824-9.642 0-9.642-9.8824-19.284-9.8824-9.641 0-9.641 9.8824-19.216 9.8824C471.925 9.8824 471.925 0 462.35 0c-9.574 0-9.708 9.8824-19.35 9.8824-9.642 0-9.642-9.8824-19.217-9.8824-9.641 0-9.641 9.8824-19.216 9.8824-9.642 0-9.642-9.8824-19.284-9.8824-9.641 0-9.641 9.8824-19.216 9.8824C356.425 9.8824 356.425 0 346.85 0c-9.641 0-9.641 9.8824-19.216 9.8824-9.642 0-9.642-9.8824-19.217-9.8824-9.641 0-9.641 9.8824-19.283 9.8824C279.492 9.8824 279.492 0 269.85 0c-9.641 0-9.641 9.8824-19.283 9.8824-9.642 0-9.642-9.8824-19.284-9.8824-9.641 0-9.641 9.8824-19.283 9.8824-9.642 0-9.642-9.8824-19.283-9.8824-9.642 0-9.642 9.8824-19.284 9.8824S163.791 0 154.15 0c-9.642 0-9.642 9.8824-19.217 9.8824C125.291 9.8824 125.291 0 115.65 0c-9.642 0-9.642 9.8824-19.2839 9.8824C86.7243 9.8824 86.7243 0 77.0826 0s-9.6417 9.8824-19.2835 9.8824C48.1574 9.8824 48.1574 0 38.5157 0c-9.374 0-9.374 9.8824-19.0157 9.8824C9.8583 9.8824 9.8583 0 .2835 0S-9.3583 9.8824-19 9.8824V24h770V9.8824C741.358 9.8824 741.358 0 731.783 0Z"/></svg>