<svg xmlns="http://www.w3.org/2000/svg" width="149" height="72" fill="none" viewBox="0 0 149 72"><path fill="#000" d="M144.16 31.1053c-1.51 1.0859-3.121 1.8756-4.732 2.764 0-1.6781-.1-3.455-.604-5.0344.101-.2961.101-.691.101-.9871.403-2.9614.705-7.0087-2.013-9.0816-.302-.2962-1.208 0-1.913.2961-.201-.1974-.302-.2961-.503-.3949-.101-.1974-.201-.4935-.201-.6909 0-.0988-.202-.1975-.403-.1975.302-.3948.302-.7897-.403-1.0858-.402-.1974-.805-.2962-1.107-.3949-.101-.0987-.101-.0987-.201-.0987-.906-.2961-1.913-.4935-2.92-.691.101-.2961.403-.7897.604-.9871.101-.1974.302-.2961.403-.3949.101-.0987.101-.0987.201-.1974 0 0 .101 0 .101-.0987l.101-.0987c.402-.2962.805-.8884.201-1.1846-.604-.2961-1.51-.0987-2.013.1975-.906.6909-1.611 1.3819-2.114 2.3691-2.013-.1975-4.027-.1975-6.141-.0987.101-.0988.101-.1975.101-.2962.201-.5923-.906-.4935-1.208-.4935-1.611.1974-3.121.3948-4.731.5922 1.409-3.7511 3.12-8.4893 1.006-12.1417-1.208-2.073-3.925-2.5665-6.14-2.6653-2.416-.0987-4.933.4936-7.047 1.5795-4.8314 2.5665-7.1467 7.6009-8.254 12.9314-.5033-.691-2.3153-.3949-2.6173.4936-.1006.2961-.2013.5922-.302.9871-.2013.1974-.302.3948-.302.5923v.1974h-.2013c0-.0987 0-.1974.1007-.2961.1006-.0988.2013-.1975.302-.3949.6039-2.2704 1.2079-4.5408 1.9126-6.7125.302-.7897-2.5166-.3948-2.8186.3949-.4027 1.1845-.8053 2.3691-1.1073 3.5536-.2013.0987-.4027.1975-.4027.2962v.0987c-.1006-.0987-.302-.1974-.5033-.1974v-.9872c0-.3948-2.8186 0-2.8186.7897v1.5794c-.2013.0988-.302.1975-.5033.2962l-.2013.1974c-.1007.0987-.1007.1974-.1007.1974v.0988l-.1007.0987c-.1006.0987-.2013.2961 0 .4935.2014.1975.5034.1975.7047.1975h.1006v.4935h-.7046l-.4027-.0987c0-.3948-.7046-.4936-1.4093-.2961v-.0987c-.1006-.5923-.2013-1.1846-.2013-1.7769.2013-.0987.5033-.1974.7047-.2961.2013-.0987.302-.1974.302-.3949v-.1974c0-.1974-.4027-.1974-.5034-.1974h-.6039c-.1007-1.2833-.1007-2.5666-.1007-3.8498 0-.7897-2.8186-.2962-2.8186.7897 0 1.7768 0 3.5536.2013 5.2318h-.302v-1.4807c0-.9872-1.3086-1.1846-2.1139-.7897.302-.2962.5033-.5923.4026-.9872-.4026-1.382-.8053-2.764-1.0066-4.2446-.2013-1.382-3.0199-.691-2.8186.7897.2013 1.4807.604 2.8626 1.0066 4.2446.2014.7897 1.3087.8885 2.114.4936-.2013.1974-.4027.4936-.4027.7897v.5923c-.3019-.2962-.5033-.2962-.9059-.2962-1.1073 0-1.7113.8885-1.4093 1.4807-.2014 0-.302-.0987-.5034-.0987-.4026-1.1845-.7046-2.4678-.7046-3.7511 0-.8884-1.3086-.9871-2.1139-.691v-.1974c-.4027-.7897-.604-1.6781-.8054-2.4678-.3019-1.2833-3.2212-.5923-2.8186.7897.2014.5923.302 1.2833.5034 1.8755h-.1007c-.302.0987-.604.1975-.906.3949-.8053.0987-1.8119.5923-1.8119 1.1845.1006.4936.1006.9872.2013 1.382-.4027.0987-1.0066.0987-1.51.1975-.3019-.7897-.5033-1.5795-.6039-2.3692-.1007-.8884-1.6107-.8884-2.3153-.2961-.8053-2.073-1.812-3.9485-3.1206-5.7254-2.7179-3.3562-7.2478-4.5408-11.375-3.6523-1.9127.3948-3.7246 1.1845-5.0332 2.5665-1.208 1.382-1.4093 3.0601-1.208 4.7382.2013 1.4807.604 3.9486 1.6106 5.9228-.4026 0-.7046 0-.906.0987-.302.0987-.6039.1975-.8053.3949-1.9126 0-3.9259 0-5.8385-.0987-4.2279-.1975-8.3551-.8884-12.583-.691-.906 0-1.51.691-1.51 1.2832-1.0066.4936-1.7112 1.2833-2.1139 2.2705-1.7113-1.0859-3.5232-2.2705-5.3352-3.1589-.7046-.3948-3.322.691-2.3153 1.1846 1.812.8884 3.6239 2.073 5.3352 3.1588.5033.2961 1.3087.0987 1.812-.0987 0 0 .1006 0 .2013-.0987-.302 1.382-.2013 3.0601.2013 4.4421 0 .0987.1007.1974.2014.2961V26.3671c-.4027.1974-.7047.4935-.8054.7897a28.7276 28.7276 0 0 0-.3019 4.1459c-.302.1975-.5034.4936-.5034.7897-.2013 3.2576 0 6.6138.5034 9.8714.2013 2.6652.7046 5.2318 1.2079 7.897.1007.3949.1007.7897.2014 1.2833-.302 1.0858-.4027 2.3691-.2014 3.455-.906.1974-1.7113.8884-1.2079 1.5794.8053 1.1845 1.6106 1.9742 2.6172 2.5665-.604-.0987-1.4093.0987-1.9126.5923-.8053.7897-1.7113 1.4807-2.5166 2.2704-.4027.3948-.302.8884.302 1.0858.7046.1975 1.51-.0987 2.0133-.4935.8053-.7897 1.7113-1.4807 2.5166-2.2704.2013-.1975.302-.4936.2013-.691 3.2213 1.6781 7.2478 1.2832 11.1737.8884-.906 1.5794-1.5099 3.2575-2.2146 4.9357-.302.6909 2.5166.3948 2.8186-.3949.604-1.6781 1.208-3.2575 2.1139-4.8369 3.7246.0987 7.5499.0987 11.2744.0987.1007.1974.4027.2961.7047.2961 3.3219.2962 6.5431-.0987 9.7644-.691 4.8319-.1974 9.6637-.4936 14.4956-.7897a874.2325 874.2325 0 0 1 22.7501-.2961l.302.2961c.302.2961.604.2961 1.0066.2961h.2013c.7047 0 1.4093.0988 2.114.0988.2013 0 .302.0987.604 0 .8053.0987 1.6106.0987 2.3152.1974.2014.1974.5032.2961.8052.3948 3.825.2962 7.651.4936 11.476.691.101.1975.503.2962.805.2962 7.147.0987 15.402 2.7639 21.744-1.6782.503-.3948.302-.8884-.302-.9871h-.302c1.208-2.764 2.214-5.5279 2.919-8.4893.403-.1974.604-.4936.604-.8884 0-1.1846.201-2.3692.403-3.5537.201-.8884.302-1.7769.402-2.6653.403-2.1717.805-4.3434 1.007-6.4163 2.315-1.0859 4.53-2.2704 6.644-3.7511 1.61-1.1846-.806-1.8756-1.812-1.1846Zm-55.7682-14.807-.1007.0987c.1007-.2961.1007-.5922.2014-.8884h.1006c0 .1975-.1006.4936-.2013.7897Z"/><path fill="#000" d="M63.729 12.5468c.1007.1974.604.1974.8053.1974.4027 0 .8053-.0987 1.1073-.1974.4027-.1974 1.1073-.5923.8053-1.0858-.4026-.5923-.604-1.1846-1.0066-1.7769-.1007-.1974-.604-.1974-.8053-.1974-.4027 0-.8054.0987-1.1073.1974-.4027.1974-1.1073.5923-.8054 1.0859.302.5922.604 1.2832 1.0067 1.7768ZM20.8461 10.8691c.2013.5922 1.1073.5922 1.6106.4935.5033-.0987 1.4093-.5923 1.208-1.2833-.2013-.5922-.4027-1.2832-.906-1.7768-.5033-.4936-1.3086-.3948-1.9126-.1974-.4027.1974-1.208.7897-.7047 1.2833.4027.5922.5034.8884.7047 1.4807ZM30.9124 13.8306c.8053 0 3.1206-1.2832 1.208-1.2832-.906 0-3.1206 1.2832-1.208 1.2832ZM123.423 12.2512c.302.0987.705 0 1.107-.0987.302-.0987.705-.1974.906-.4935.403-.3949.705-.691 1.007-1.1846.101-.1974.201-.3949 0-.5923-.201-.1974-.503-.1974-.805-.2961-.403 0-.806.0987-1.108.1974-.302.0987-.604.2961-.805.5923-.101.1974-.201.3948-.403.4936-.1.0987-.1.0987-.201.1974-.201.1974-.302.3948-.302.5923.101.3948.302.4935.604.5922ZM136.811 17.5816c.604-.0988 1.409-.1975 1.913-.691 1.308-1.0859 2.617-2.1717 3.623-3.5537.302-.3949-1.006-.1974-1.107-.1974-.503.0987-1.308.2961-1.711.691-.906 1.2832-2.215 2.2704-3.423 3.3562-.503.3949.403.3949.705.3949ZM147.682 44.3332h-4.932c-.604 0-1.51.4936-1.611 1.0859-.1.691.806.8884 1.309.8884h4.932c.604 0 1.51-.4936 1.611-1.0859.101-.6909-.705-.8884-1.309-.8884ZM57.3874 60.1268c-.5033.0987-1.4093.2962-1.6106.7897-.5034 1.2833-1.0067 2.5666-1.4093 3.8498-.2014.691 2.6172.2962 2.8186-.4935.4026-1.2833.8053-2.5666 1.4093-3.8498.2013-.4936-1.0067-.2962-1.208-.2962ZM62.0178 62.6935c-.302 0-.7046.0987-1.0066.1974-.302.0987-.7047.1974-1.0067.3949-.1006.0987-.302.1974-.302.3948v.2962c0 .0987-.1006.1974-.1006.2961-.1007.0987-.1007.1974 0 .2961.2013.0988.5033.0988.7046.0988.4027 0 .7047-.0988 1.1073-.2962.2013-.0987.604-.1974.8053-.3948.1007-.1975.2014-.2962.302-.4936v-.4936c0-.2961-.4026-.2961-.5033-.2961ZM117.483 66.3456c-.402-.691-3.019.2961-2.818.7897.805 1.5794 1.912 3.0601 2.919 4.6395.403.691 3.02-.3948 2.819-.7897-1.007-1.5794-2.114-3.0601-2.92-4.6395ZM121.51 63.9767c-.302-.5923-1.107-.5923-1.61-.3949-.403.0987-1.51.5923-1.208 1.1846.402.7897.805 1.5794 1.208 2.2704.302.5922 1.107.5922 1.61.3948.403-.0987 1.51-.5923 1.208-1.1845-.402-.691-.805-1.4807-1.208-2.2704ZM5.7465 42.6544c-1.51.3948-3.02.5923-4.53.9871-.5032.0987-1.3086.5923-1.2079 1.2833.2013.691 1.1073.691 1.7113.5923 1.51-.3949 3.02-.5923 4.5299-.9872.5033-.0987 1.3086-.6909 1.208-1.2832-.302-.691-1.208-.691-1.7113-.5923Z"/></svg>