<svg xmlns="http://www.w3.org/2000/svg" width="67" height="100" fill="none" viewBox="0 0 67 100"><path fill="#fff" d="M57.1276 9.1518c-13.0954-12.2024-34.2106-12.2024-47.306 0-13.0955 12.2024-13.0955 31.9444 0 44.1468 0 0 23.653 21.627 23.653 46.627 0-25 23.653-46.627 23.653-46.627 13.0955-12.1032 13.0955-31.9444 0-44.1468Z"/><path fill="#6BC6B3" d="M47.6871 45.164c-.6091-3.2738.1015-6.8452 0-10.2182-.1015-3.7699-.7106-7.4405-.7106-11.1111 0-2.9762.5076-6.1508-.5076-9.0278.1015-.2976.1015-.6945.2031-.9921.3045-1.4881-4.6697-.6944-5.3803.5953-.5076.3968-.7107.8928-.5076 1.2896.1015.0992.1015.1985.1015.3969-.9136 4.4642-2.2333 8.7301-3.7561 13.0952-.6091 1.6865-1.2181 3.2738-1.8272 4.8611-.8122-1.4881-1.6243-3.0754-2.3349-4.6627-1.9288-4.7619-3.756-9.623-6.0909-14.1865.3046-2.0833-4.5682-1.8849-5.4818 0-1.1167 2.381-1.0152 4.7619-.6091 7.2421.4061 2.877.5076 5.6547.5076 8.5317.1015 5.5556.5075 11.0119.6091 16.5675-.5076.5952-.6091 1.1905-.1016 1.8849.2031.2976.5076.496.8122.7936 1.3197.9921 4.9742.1985 4.9742-1.7857 0-5.7539-.406-11.4087-.6091-17.1627v-1.6865c.1015.1984.2031.3969.2031.5953.9136 2.1825 1.8272 4.365 3.1469 6.4484 1.2182 2.0833 1.8273 4.2659 2.5379 6.4484-.3045.2976-.4061.5952-.3045.9921-.1016.2976.1015.3968.406.496.9137.7936 2.6394.3968 3.553 0l1.2182-.5953c.5076-.2976 1.2182-.992 1.0152-1.5873 0-.0992-.1015-.2976-.1015-.3968.7106-1.7857 1.0151-3.5714 1.4212-5.4563.406-1.9842 1.1166-3.8691 1.8272-5.754.1016.8929.1016 1.6865.2031 2.5794.3045 3.5714 0 7.0436 0 10.615 0 1.1905.1015 2.2818.3045 3.3731.1015.496.5076 2.4801.4061 2.5793-.9137.7937-.6091 1.7857.5076 1.9842 1.3197.2976 2.9439-.0992 3.959-.9921 1.6243-1.3889.8122-3.7698.4061-5.754Z"/></svg>