<svg xmlns="http://www.w3.org/2000/svg" width="101" height="77" fill="none" viewBox="0 0 101 77"><path fill="#63D1BB" d="M97.2707 18.1s-.9008-7-3.8036-10.1c-3.6034-4-7.7073-4.1-9.509-4.3-13.3127-1-33.3318-1-33.3318-1h-.1001s-20.019 0-33.3317 1c-1.9018.2-5.9056.3-9.509 4.3-2.8027 3.1-3.8037 10.1-3.8037 10.1s-.9008 8.2-.9008 16.4v7.7c0 8.2.9008 16.4.9008 16.4s.9009 7 3.8036 10.1c3.6035 4 8.408 3.9 10.51 4.3 7.6073.8 32.4309 1 32.4309 1s20.0191 0 33.3318-1c1.9018-.2 5.9056-.3 9.509-4.3 2.8027-3.1 3.8036-10.1 3.8036-10.1s.9009-8.2.9009-16.4v-7.7c0-8.2-.9009-16.4-.9009-16.4Z"/><path fill="#fff" d="M50.5262 76.8c-1.001 0-25.0239-.3-32.6311-1h-.2002c-.3003-.1-.7006-.1-1.101-.2-2.5024-.3-7.2069-.9-10.8103-5C2.3803 67 1.3794 59.8 1.2793 59c0-.3-1.001-8.5-1.001-16.7v-7.7c0-8.3.9009-16.4.9009-16.7v-.1c.1-.8 1.2011-7.9 4.5043-11.6 4.0038-4.4 8.5081-4.9 10.7102-5.1.2002 0 .4004 0 .5005-.1h.1001C30.3069 0 50.326 0 50.5262 0h.1001c.2002 0 20.2193 0 33.5319 1h.1001c.2002 0 .3003 0 .5005.1 2.2021.2 6.7064.7 10.7102 5.1 3.4032 3.6 4.4042 10.8 4.5043 11.6 0 .3 1.0007 8.5 1.0007 16.8v7.7c0 8.3-.901 16.4-1.0007 16.7v.1c-.1001.8-1.2012 8-4.5043 11.6-4.0038 4.4-8.5081 4.9-10.7102 5.1-.2002 0-.4004 0-.5005.1h-.1001c-13.3126.9-33.4318.9-33.632.9Zm-31.9304-6.4c7.5071.7 31.2297 1 32.0305 1 .7007 0 20.1192 0 33.0315-1 .2001 0 .4003 0 .6005-.1 1.8017-.2 4.6044-.5 7.2069-3.3 1.8017-2 2.9027-6.9 3.1029-8.6.1001-.5.9009-8.4.9009-16.1v-7.7c0-7.8-.9009-15.6-1.001-16.1-.3003-2.4-1.4013-6.8-3.1029-8.5-2.6025-2.9-5.4052-3.1-7.2069-3.3-.2002 0-.4004 0-.6006-.1-13.1124-1-32.8312-1-33.0314-1h-.1001c-.2002 0-20.0191 0-33.0315 1-.2002 0-.4004 0-.6005.1-1.8018.2-4.6044.5-7.2069 3.3-1.8017 2-2.9028 6.9-3.103 8.6-.1.6-.9008 8.4-.9008 16.1v7.7c0 7.7.9008 15.6.9008 16.1.3003 2.4 1.4014 6.8 3.103 8.5 2.3022 2.6 5.3051 3 7.5072 3.3.6005-.1 1.0009 0 1.5014.1Z"/><path fill="#fff" d="M38.6147 20.5v35.7l29.8284-17.8-29.8284-17.9Z"/></svg>