<svg xmlns="http://www.w3.org/2000/svg" width="33" height="32" fill="none" viewBox="0 0 33 32"><path fill="#63D1BB" d="M3.0275 32h12.6147V18.2716H3.0275V32ZM31.3853 8.6914h-7.367c.5046-.2963 1.0092-.4939 1.4129-.7902 1.6147-1.0864 2.422-2.5679 2.422-3.9506 0-1.1852-.6055-2.1728-1.4128-2.8642C25.633.3951 24.5229 0 23.4128 0c-1.211 0-2.422.395-3.3302 1.0864-1.5138.9877-2.6239 2.4692-3.4312 4.0494 0 .0988-.1009.1975-.1009.1975-.3028-.5926-.6055-1.1852-1.0092-1.7778-.7064-.9876-1.5138-1.8765-2.523-2.469C12.0092.4937 10.8991 0 9.6881 0 8.477 0 7.367.4938 6.4587 1.284c-.8073.79-1.4128 1.8765-1.4128 3.0617 0 .6913.2018 1.4814.6055 2.1728.6055.8889 1.4128 1.5803 2.6238 2.1729H1.6147C.7064 8.6914 0 9.3827 0 10.2716v5.8272h15.5413V8.6914h1.9174v7.4074H33v-5.8272c0-.8889-.7064-1.5802-1.6147-1.5802ZM8.8807 6.4197c-.6055-.395-1.0091-.79-1.211-1.0864-.2018-.395-.3027-.6913-.3027-.9876 0-.4939.2018-.9877.7064-1.4815.4037-.395 1.0092-.6914 1.6147-.6914.7064 0 1.4128.1976 2.0183.6914 1.0092.6914 2.0184 1.7778 2.6239 3.1605.3027.6913.6055 1.3827.8073 2.074-3.1284-.2962-5.1468-.9876-6.2569-1.679Zm10.5964-1.5802c.6055-.7901 1.211-1.4815 1.9174-1.8765.7064-.4939 1.4128-.6914 2.0183-.6914.6055 0 1.1101.1975 1.5138.4938.4037.2963.6055.6914.6055 1.1852s-.3027 1.284-1.5138 2.074c-1.11.7902-3.1284 1.6791-6.1559 2.2717.3027-1.1852.9082-2.4692 1.6147-3.4568ZM17.4587 32h12.6147V18.2716H17.4587V32Z"/></svg>