<svg xmlns="http://www.w3.org/2000/svg" width="40" height="62" fill="none" viewBox="0 0 40 62"><path fill="#149080" d="M15.162 37.7172c-.2992.9952-.1995 2.1894 0 3.5827.4988 2.5875 1.6958 5.9711 2.394 9.6534h5.0873c.6983-3.5827 1.8953-6.9664 2.4938-9.6534.2992-1.3933.2992-2.6871 0-3.5827-.2993-.8957-.8978-1.5923-1.995-2.289H17.157c-1.197.6967-1.7955 1.3933-1.995 2.289ZM26.9327 57.6211H13.1671c-1.2968 0-2.2943.9952-2.2943 2.1894V62h18.3541v-2.1895c0-1.1942-.9975-2.1894-2.2942-2.1894ZM34.015 2.1894H22.3441C22.3441.9952 21.3466 0 20.0499 0c-1.2968 0-2.2943.9952-2.2943 2.1894H6.0848L0 27.567c.798-.4976 1.596-.9952 2.5935-.9952 1.3965 0 2.1945.7962 2.8928 1.3933.6982.5971 1.197.7961 1.3965.7961.2992 0 .798-.2985 1.4962-.7961.6983-.4976 1.596-1.3933 2.8928-1.3933 1.2968 0 2.1945.7962 2.8928 1.3933.6982.4976 1.197.7961 1.4962.7961.0998 0 .2993-.0995.5985-.199.1995-.0995.4988-.3981.8978-.5971.4988-.3981 1.0973-.9952 1.995-1.1943.2993-.0995.5985-.0995.8978-.0995 1.2967 0 2.1945.7962 2.8927 1.3933.6983.4976 1.1971.7962 1.4963.7962.2993 0 .798-.2986 1.3965-.7962.6983-.5971 1.596-1.3933 2.8928-1.3933 1.3965 0 2.1945.7962 2.8928 1.3933.2992.2986.5984.4976.8977.5971.1995.0995.399.1991.5985.1991.2993 0 .798-.2986 1.3965-.8957.6983-.5971 1.596-1.3933 2.8928-1.3933.9975 0 1.7955.4976 2.5935.9952L34.015 2.1894ZM23.4412 53.1427h-6.8828c-.6982 0-1.0972.4976-1.0972 1.0947s.4987 1.0947 1.0972 1.0947h6.8828c.6983 0 1.0973-.4976 1.0973-1.0947.0997-.5971-.399-1.0947-1.0973-1.0947Z"/><path fill="#149080" d="M20.0498 28.7605c-.0998 0-.2993.0995-.5985.199-.1995.0996-.399.2986-.5985.3981v3.6822h2.2943v-3.5827c-.4988-.398-.8978-.6966-1.0973-.6966Z"/></svg>