<svg xmlns="http://www.w3.org/2000/svg" width="25" height="24" fill="none" viewBox="0 0 25 24"><path fill="#62D1BA" d="M17.4395 24h-1.1089c-4.9395-.5926-8.5685-2.8642-11.1895-5.7283C2.5201 15.4075.4032 11.7532 0 6.7162V5.3335c.1008-.8889.504-1.4815 1.1089-2.074.6048-.6914 1.6129-1.4815 2.5201-1.5803.7057 0 1.8146.4938 2.2178 1.0864.4032.4938.6048 1.5802.8064 2.3704.2016.8888.6049 1.9752.504 2.7654-.2015 1.1852-1.8145 1.679-2.2177 2.5679 1.613 3.6542 4.133 6.4197 7.5605 8.1974.8065-.4938 1.6129-1.8765 2.8226-1.8765.4032 0 1.008.1975 1.4113.2963.504.0987.9072.2963 1.3105.4938.7056.2963 2.0161.5926 2.4193 1.1852s.7057 1.5802.6048 2.1728c-.3024 1.2839-2.4193 2.6666-3.629 3.0617ZM12.6008 1.4815c5.9476 0 10.8871 4.7407 10.8871 10.6666H25C25 5.4321 19.4557 0 12.6008 0v1.4815Z"/><path fill="#62D1BA" d="M12.6008 9.185v1.5803c.8065 0 1.4113.5926 1.4113 1.3827h1.6129c0-1.5802-1.3105-2.963-3.0242-2.963ZM12.6008 6.1236c3.3266 0 6.1492 2.6666 6.1492 6.0246h1.6129c0-4.1481-3.4274-7.5061-7.6613-7.5061v1.4815h-.1008Z"/></svg>