<svg xmlns="http://www.w3.org/2000/svg"><style>:root svg:not(:target){display:none}</style><svg fill="none" id="arrow" viewBox="0 0 50 26"><path fill="#000" d="M50 11H7.7l8.1-8.2L13 0 0 13l13 13 2.8-2.8L7.7 15H50v-4Z"></path></svg><svg fill="none" id="cart" viewBox="0 0 21 18"><path fill="#000" d="M20.188 6.857h-3.55L13.188.381C12.985 0 12.58-.095 12.174.095s-.507.572-.304.953l3.145 5.81H5.783l3.145-5.81c.202-.381 0-.762-.305-.953-.406-.19-.811 0-1.014.286l-3.45 6.476H.812c-.406 0-.812.286-.812.762 0 .381.304.762.812.762h.202l.913 2.857c-.202.095-.304.286-.304.571 0 .382.304.667.71.667L4.058 18h12.884l1.725-5.524c.405 0 .71-.286.71-.667 0-.19-.102-.476-.304-.57l.912-2.858h.203c.406 0 .812-.286.812-.762 0-.476-.406-.762-.812-.762Zm-4.565 9.62H5.073L3.854 12.38h13.087l-1.319 4.095Zm1.623-5.525H3.348l-.812-2.666h15.522l-.812 2.666Z" opacity=".2"></path></svg><svg fill="none" id="flag" viewBox="0 0 47 81"><path fill="#63D1BB" d="M7.766 3.862v38.52L47 23.071 7.766 3.862ZM0 80.9V0h3.833v80.9H0Z"></path><path fill="#231F20" d="M3.833.1H0V81h3.833V.1Z"></path></svg><svg fill="none" id="gift" viewBox="0 0 33 32"><path fill="#63D1BB" d="M3.027 32h12.615V18.272H3.028V32ZM31.386 8.691h-7.367c.505-.296 1.01-.493 1.413-.79 1.615-1.086 2.422-2.568 2.422-3.95 0-1.186-.605-2.173-1.413-2.865C25.633.396 24.523 0 23.413 0c-1.211 0-2.422.395-3.33 1.086-1.514.988-2.624 2.47-3.432 4.05 0 .099-.1.197-.1.197-.303-.592-.606-1.185-1.01-1.777-.706-.988-1.514-1.877-2.523-2.47C12.01.495 10.9 0 9.688 0c-1.211 0-2.321.494-3.23 1.284-.807.79-1.412 1.877-1.412 3.062 0 .691.202 1.481.605 2.172.606.89 1.413 1.58 2.624 2.173h-6.66C.706 8.691 0 9.383 0 10.271V16.1h15.541V8.69h1.918V16.1H33v-5.827c0-.89-.706-1.58-1.615-1.58ZM8.881 6.42c-.606-.395-1.01-.79-1.211-1.087-.202-.395-.303-.691-.303-.987 0-.494.202-.988.706-1.482.404-.395 1.01-.691 1.615-.691.706 0 1.413.197 2.018.691a7.6 7.6 0 0 1 2.624 3.16c.303.692.606 1.383.808 2.075-3.129-.297-5.147-.988-6.257-1.68Zm10.596-1.58c.606-.79 1.211-1.482 1.917-1.877.707-.494 1.413-.691 2.019-.691.605 0 1.11.197 1.514.493.403.297.605.692.605 1.186s-.303 1.284-1.514 2.074c-1.11.79-3.128 1.679-6.156 2.271a10.88 10.88 0 0 1 1.615-3.457ZM17.46 32h12.614V18.272H17.46V32Z"></path></svg><svg fill="none" id="handmade" viewBox="0 0 35 34"><path fill="#63D1BB" d="M.306 13.953a16.04 16.04 0 0 0 0 6.232l4.176-3.165-4.176-3.067ZM24.852 1.586C19.963-.59 14.259-.59 9.269 1.982l7.638 5.54 7.945-5.936Zm9.676 11.476-4.889 3.66 4.99 3.66c.51-2.373.51-4.946-.101-7.32ZM9.371 32.057c4.888 2.473 10.898 2.671 15.99.099l-8.25-6.035-7.74 5.936ZM8.046 14.249 1.732 9.698c-.306.693-.612 1.385-.815 2.078l5.398 3.957 1.731-1.484Zm10.899 10.586 8.453 6.134c.306-.198.611-.396.815-.594.306-.198.611-.495.917-.791l-8.454-6.134-1.731 1.385ZM11.61 11.578 4.074 6.137c-.51.494-.917 1.088-1.324 1.682l7.028 5.144 1.833-1.385ZM22.51 22.163l8.25 6.035c.51-.494.917-1.088 1.325-1.682l-7.843-5.738-1.732 1.386ZM15.176 8.907 7.333 3.169c-.203.099-.407.297-.61.396-.408.297-.815.593-1.121.989l7.843 5.64 1.731-1.287Zm10.898 10.487 7.13 5.144c.305-.693.611-1.286.917-1.979l-6.213-4.55-1.834 1.385Zm.815-16.72L.917 22.362c.203.692.509 1.385.814 2.077L28.722 3.96c-.509-.494-1.12-.89-1.833-1.286Zm4.38 3.858c-.306-.395-.611-.791-.917-1.088L2.852 26.22c.204.494.51.89.815 1.187.102.198.305.396.407.494L31.778 7.127c-.204-.198-.305-.396-.51-.594Zm1.63 2.375L5.703 29.484c.509.495 1.12.99 1.731 1.385l26.482-19.984c-.305-.692-.611-1.385-1.018-1.978Z"></path></svg><svg fill="none" id="htmlacademy" viewBox="0 0 27 35"><path fill="#63D1BB" d="M13.6 0h-.1L0 1.4v24.7l13.5 8 13.4-8V1.4L13.6 0ZM25 12.1 13.5 5.3v-.1h-.1l-.1-.1v.1L1.9 12.1v-9l11.5-1.2L25 3.1v9ZM13.4 6.8l11.5 6.7-4.5 2.6-7.1-4.2v1.4l5.9 3.5-.9.5-5-3v1.4l3.8 2.3-.8.5-3-1.8v1.4l1.9 1.1-1.8 1.1L2 13.6l11.4-6.8ZM1.9 15.1l11.4 6.8v1l-7.9-4.7v1.4l8 4.8v1.1l-8-4.7v1.4l8 4.8 8.1-4.9v-5.2l3.4-2v10l-11.5 6.9L1.9 25v-9.9Z"></path></svg><svg fill="none" id="interior" viewBox="0 0 40 62"><path fill="#149080" d="M15.162 37.717c-.3.995-.2 2.19 0 3.583.499 2.587 1.696 5.971 2.394 9.653h5.087c.699-3.582 1.896-6.966 2.494-9.653.3-1.393.3-2.687 0-3.583-.3-.896-.898-1.592-1.995-2.289h-5.985c-1.197.697-1.796 1.393-1.995 2.29Zm11.77 19.904H13.168c-1.297 0-2.294.995-2.294 2.19V62h18.354v-2.19c0-1.194-.998-2.189-2.294-2.189ZM34.016 2.19h-11.67C22.344.995 21.346 0 20.05 0s-2.294.995-2.294 2.19H6.085L0 27.566c.798-.498 1.596-.995 2.594-.995 1.396 0 2.194.796 2.892 1.393.699.597 1.197.796 1.397.796.299 0 .798-.298 1.496-.796.698-.498 1.596-1.393 2.893-1.393 1.297 0 2.194.796 2.893 1.393.698.498 1.197.796 1.496.796.1 0 .3-.1.598-.199.2-.1.5-.398.898-.597.499-.398 1.097-.995 1.995-1.194.3-.1.599-.1.898-.1 1.297 0 2.194.796 2.893 1.394.698.497 1.197.796 1.496.796.3 0 .798-.299 1.396-.796.699-.598 1.596-1.394 2.893-1.394 1.397 0 2.195.796 2.893 1.394.3.298.598.497.898.597.2.1.399.199.598.199.3 0 .798-.299 1.397-.896.698-.597 1.596-1.393 2.893-1.393.997 0 1.795.497 2.593.995L34.015 2.189ZM23.441 53.143h-6.883c-.698 0-1.097.497-1.097 1.094s.499 1.095 1.097 1.095h6.883c.698 0 1.097-.497 1.097-1.095.1-.597-.399-1.094-1.097-1.094Z"></path><path fill="#149080" d="M20.05 28.76c-.1 0-.3.1-.599.2-.2.1-.399.298-.598.398v3.682h2.294v-3.583c-.499-.398-.898-.697-1.097-.697Z"></path></svg><svg fill="none" id="likes" viewBox="0 0 34 27"><path fill="#63D1BB" d="M34 8.45C34 3.788 29.982 0 25.036 0A9.249 9.249 0 0 0 17 4.662C15.558 1.942 12.467 0 8.964 0 4.018 0 0 3.788 0 8.45 0 17.288 15.146 27 17 27c1.958 0 17-9.615 17-18.55Z"></path></svg><svg fill="none" id="mail-accent" viewBox="0 0 32 21"><path fill="#62D1BA" d="M28 0H4C1.8 0 0 1.8 0 4v13c0 2.2 1.8 4 4 4h24c2.2 0 4-1.8 4-4V4c0-2.2-1.8-4-4-4ZM2 5.3l7 5.3-7 5.3V5.3ZM30 17c0 1.1-.9 2-2 2H4c-1.1 0-2-.9-2-2l7.8-5.9 4.4 3.3c.5.4 1.2.6 1.8.6.6 0 1.3-.2 1.8-.6l4.4-3.3L30 17Zm0-1.2-7-5.3 7-5.3v10.6Zm-12.8-2.2c-.4.3-.8.4-1.2.4-.4 0-.9-.1-1.2-.4l-4.1-3.1-.8-.6L2 4c0-1.1.9-2 2-2h24c1.1 0 2 .9 2 2l-12.8 9.6Z"></path></svg><svg fill="none" id="mail" viewBox="0 0 32 21"><path fill="#000" d="M28 0H4C1.8 0 0 1.8 0 4v13c0 2.2 1.8 4 4 4h24c2.2 0 4-1.8 4-4V4c0-2.2-1.8-4-4-4ZM2 5.3l7 5.3-7 5.3V5.3ZM30 17c0 1.1-.9 2-2 2H4c-1.1 0-2-.9-2-2l7.8-5.9 4.4 3.3c.5.4 1.2.6 1.8.6.6 0 1.3-.2 1.8-.6l4.4-3.3L30 17Zm0-1.2-7-5.3 7-5.3v10.6Zm-12.8-2.2c-.4.3-.8.4-1.2.4-.4 0-.9-.1-1.2-.4l-4.1-3.1-.8-.6L2 4c0-1.1.9-2 2-2h24c1.1 0 2 .9 2 2l-12.8 9.6Z" opacity=".2"></path></svg><svg fill="none" id="materials" viewBox="0 0 33 38"><path fill="#63D1BB" d="M16.5 38C25.575 38 33 30.645 33 21.656c-9.075 0-16.5 7.253-16.5 16.344ZM4.744 16.65c0 2.554 2.062 4.495 4.537 4.495.928 0 1.856-.306 2.578-.817v.306c0 2.554 2.063 4.495 4.538 4.495 2.578 0 4.537-2.043 4.537-4.495v-.306c.722.51 1.65.817 2.579.817 2.578 0 4.537-2.043 4.537-4.494 0-1.84-1.031-3.371-2.578-4.086 1.547-.715 2.578-2.248 2.578-4.086 0-2.554-2.062-4.495-4.537-4.495-.929 0-1.857.306-2.579.817v-.306C20.934 1.94 18.872 0 16.397 0c-2.578 0-4.538 2.043-4.538 4.495V4.8a4.542 4.542 0 0 0-2.578-.817c-2.578 0-4.537 2.043-4.537 4.495 0 1.838 1.031 3.37 2.578 4.086-1.444.715-2.578 2.247-2.578 4.086ZM16.5 7.969c2.578 0 4.537 2.043 4.537 4.494 0 2.554-2.062 4.495-4.537 4.495-2.578 0-4.537-2.043-4.537-4.495s1.959-4.494 4.537-4.494ZM0 21.656C0 30.646 7.425 38 16.5 38c0-9.091-7.425-16.344-16.5-16.344Z"></path></svg><svg fill="none" id="menu-close" viewBox="0 0 21 20"><path fill="#000" d="M21 1.366 19.566 0 10.55 8.585 1.434 0 0 1.366l9.015 8.683L0 18.634 1.434 20l9.117-8.585L19.566 20 21 18.634l-9.015-8.585L21 1.366Z"></path></svg><svg fill="none" id="menu" viewBox="0 0 20 14"><path fill="#231F20" d="M20 0H0v2h20V0Zm0 6H0v2h20V6Zm0 6H0v2h20v-2Z"></path></svg><svg fill="none" id="phone-accent" viewBox="0 0 25 24"><path fill="#62D1BA" d="M17.44 24h-1.11c-4.939-.593-8.568-2.864-11.189-5.728C2.521 15.408.403 11.753 0 6.716V5.333c.1-.888.504-1.481 1.109-2.074.605-.69 1.613-1.481 2.52-1.58.706 0 1.815.494 2.218 1.087.403.493.605 1.58.806 2.37.202.889.605 1.975.504 2.765-.201 1.186-1.814 1.68-2.218 2.568 1.613 3.655 4.133 6.42 7.561 8.198.806-.494 1.613-1.877 2.823-1.877.403 0 1.008.198 1.41.296.505.1.908.297 1.311.494.706.297 2.016.593 2.42 1.185s.705 1.58.605 2.173c-.303 1.284-2.42 2.667-3.63 3.062ZM12.6 1.482c5.948 0 10.888 4.74 10.888 10.666H25C25 5.432 19.456 0 12.6 0v1.482Z"></path><path fill="#62D1BA" d="M12.6 9.185v1.58c.807 0 1.412.593 1.412 1.383h1.613c0-1.58-1.31-2.963-3.024-2.963Zm0-3.061c3.327 0 6.15 2.666 6.15 6.024h1.613c0-4.148-3.427-7.506-7.661-7.506v1.482H12.6Z"></path></svg><svg fill="none" id="phone" viewBox="0 0 25 24"><g fill="#000" opacity=".2"><path d="M17.44 24h-1.11c-4.939-.593-8.568-2.864-11.189-5.728C2.521 15.408.403 11.753 0 6.716V5.333c.1-.888.504-1.481 1.109-2.074.605-.69 1.613-1.481 2.52-1.58.706 0 1.815.494 2.218 1.087.403.493.605 1.58.806 2.37.202.889.605 1.975.504 2.765-.201 1.186-1.814 1.68-2.218 2.568 1.613 3.655 4.133 6.42 7.561 8.198.806-.494 1.613-1.877 2.823-1.877.403 0 1.008.198 1.41.296.505.1.908.297 1.311.494.706.297 2.016.593 2.42 1.185s.705 1.58.605 2.173c-.303 1.284-2.42 2.667-3.63 3.062ZM12.6 1.482c5.948 0 10.888 4.74 10.888 10.666H25C25 5.432 19.456 0 12.6 0v1.482Z"></path><path d="M12.6 9.185v1.58c.807 0 1.412.593 1.412 1.383h1.613c0-1.58-1.31-2.963-3.024-2.963Zm0-3.061c3.327 0 6.15 2.666 6.15 6.024h1.613c0-4.148-3.427-7.506-7.661-7.506v1.482H12.6Z"></path></g></svg><svg fill="none" id="search" viewBox="0 0 18 18"><path fill="#000" d="m17.693 16.057-3.477-3.477c1.023-1.33 1.534-2.966 1.534-4.705C15.75 3.477 12.273 0 7.875 0S0 3.477 0 7.875s3.477 7.875 7.875 7.875c1.739 0 3.375-.614 4.705-1.534l3.477 3.477c.204.205.409.307.818.307.614 0 1.125-.511 1.125-1.125 0-.204-.102-.511-.307-.818ZM2.25 7.875c0-3.068 2.557-5.625 5.625-5.625S13.5 4.807 13.5 7.875 10.943 13.5 7.875 13.5 2.25 10.943 2.25 7.875Z" opacity=".2"></path></svg><svg fill="none" id="style" viewBox="0 0 47 27"><path fill="#63D1BB" d="M43.066 0H3.933C1.716 0 0 1.681 0 3.857v19.286C0 25.319 1.715 27 3.933 27h39.134C45.285 27 47 25.319 47 23.143V3.857C47 1.78 45.184 0 43.066 0ZM3.026 24.725V2.77H43.57v21.956H3.026Z"></path><path fill="#63D1BB" d="M6.96 20.868h32.677V6.627H6.96v14.241ZM23.5 8.506c2.925 0 5.346 2.373 5.346 5.241 0 2.869-2.421 5.242-5.346 5.242-2.925 0-5.346-2.373-5.346-5.242 0-2.967 2.421-5.241 5.346-5.241Z"></path></svg><svg fill="none" id="support" viewBox="0 0 55 23"><path fill="#63D1BB" d="M40.947 5.75A47.822 47.822 0 0 0 28.41 4.065c-2.932 0-5.56.198-7.785.594L13.75 0H.101l5.864 6.147h8.493c-4.651 1.586-6.875 3.47-6.875 3.47v3.767s2.325 1.883 6.976 3.47H5.864L0 23h13.649l6.875-4.66c2.325.397 4.853.595 7.785.595 4.55 0 8.796-.694 12.537-1.685-1.214-1.785-1.921-3.668-1.921-5.85.1-1.982.91-3.866 2.022-5.65Zm3.538.991c-1.314 1.586-2.022 3.173-2.022 4.759 0 1.586.708 3.172 2.022 4.759C50.955 14.077 55 11.499 55 11.499s-4.044-2.577-10.515-4.758Z"></path></svg><svg fill="none" id="telegram" viewBox="0 0 28 23"><path fill="#231F20" fill-rule="evenodd" d="M23.46 3.653a.656.656 0 0 1 .227.612L21.061 20.02a.656.656 0 0 1-1.012.439l-7.878-5.253a.657.657 0 0 1-.149-.956l2.611-3.263-4.36 2.906a.657.657 0 0 1-.658.041L4.363 11.31a.657.657 0 0 1 .073-1.205l18.383-6.566a.657.657 0 0 1 .642.115Zm-17.134 7.17 3.536 1.767 7.561-5.04a.656.656 0 0 1 .877.956l-4.805 6.006 6.438 4.292L22.208 5.15 6.326 10.822Z" clip-rule="evenodd"></path></svg><svg fill="none" id="tick" viewBox="0 0 24 17"><path fill="#000" d="m23.963 1.684-.994-.992L8.766 14.786 1.735 7.775l-.994.991 7.03 7.012.995.991 1.065-.991L23.963 1.684Z"></path></svg><svg fill="none" id="toy" viewBox="0 0 60 60"><path fill="#149080" d="M0 43.993 27.4 60V36.544L0 20.436v23.557Zm51.3-31.51V15c0 1.812-3.5 3.322-7.7 3.322-4.3 0-7.7-1.51-7.7-3.322v-4.128c.3 1.712 3.6 3.121 7.7 3.121 4.3 0 7.7-1.51 7.7-3.322S47.8 7.35 43.6 7.35h-1l-5-2.92V7.55c0 1.812-3.5 3.322-7.7 3.322-2.7 0-5-.604-6.4-1.51-.2-.2-.4-.402-.7-.604-.4-.402-.6-.805-.6-1.208V4.53L17.4 7.35h-1.1c-4.3 0-7.7 1.51-7.7 3.322s3.5 3.322 7.7 3.322c4.1 0 7.4-1.41 7.7-3.12V15c0 1.812-3.5 3.322-7.7 3.322-4.3 0-7.7-1.51-7.7-3.322v-2.416l-6 3.523 27.5 16.108 27.4-16.007-6.2-3.725ZM37.7 22.752c0 1.812-3.5 3.322-7.7 3.322-4.3 0-7.7-1.51-7.7-3.322v-4.128c.3 1.712 3.6 3.121 7.7 3.121s7.4-1.41 7.7-3.12v4.127Zm-5.1 13.993V60L60 43.993V20.738L32.6 36.745Zm-2.7-30.1c4.3 0 7.7-1.51 7.7-3.323C37.6 1.51 34.1 0 29.9 0c-4.3 0-7.7 1.51-7.7 3.322s3.4 3.322 7.7 3.322Z"></path></svg><svg fill="none" id="video" viewBox="0 0 32 22"><path fill="#63D1BB" d="m26 10 6-4v16l-6-4v-8Zm-2 0v8c0 2.2-1.8 4-4 4H4c-2.2 0-4-1.8-4-4v-8c0-2.2 1.8-4 4-4h10c0-1.1.9-2 2-2V2H5c-.6 0-1-.4-1-1s.4-1 1-1h12c.6 0 1 .4 1 1v3c1.1 0 2 .9 2 2 2.2 0 4 1.8 4 4Zm-12 0H4v8h8v-8Zm8 1c0-.6-.4-1-1-1h-4c-.6 0-1 .4-1 1s.4 1 1 1h4c.6 0 1-.4 1-1Z"></path></svg><svg fill="none" id="vkontakte" viewBox="0 0 28 23"><path fill="#231F20" d="M1 5.839c0-.855.515-1.316 1.545-1.383l3.97.025a.52.52 0 0 1 .533.377c.408 1.257.866 2.343 1.372 3.257.506.913 1.168 1.965 1.985 3.156.071.15.187.226.346.226.125 0 .222-.059.293-.176l.08-.277.027-4.35c0-.302-.075-.503-.226-.604-.151-.1-.431-.176-.84-.226-.32-.05-.48-.235-.48-.553 0-.067.01-.118.027-.151.373-1.09 1.44-1.635 3.198-1.635l1.492-.025c.675 0 1.234.16 1.678.478.444.318.666.821.666 1.509v5.708c.125.084.24.126.347.126.266 0 .497-.15.692-.453 1.954-2.582 3.011-4.308 3.17-5.18 0-.017.019-.059.054-.126.124-.251.329-.47.613-.654.284-.184.533-.31.746-.377a.554.554 0 0 1 .24-.05h4.13l.266.025c.355 0 .63.16.826.478a.912.912 0 0 1 .146.327c.027.117.045.234.054.352.008.117.013.184.013.2v.177c-.124.687-.44 1.42-.946 2.2-.506.78-1.15 1.622-1.932 2.528-.781.905-1.27 1.5-1.465 1.785-.16.201-.24.386-.24.554 0 .134.071.285.214.452l3.89 4.627c.213.269.32.562.32.88 0 .386-.16.705-.48.956-.32.252-.702.394-1.146.428l-.453.025h-4.05a.855.855 0 0 0-.106.012.862.862 0 0 1-.107.013c-.39 0-.755-.16-1.092-.478-.125-.134-.96-1.123-2.505-2.967a1.387 1.387 0 0 0-.373-.327c-.07.268-.164.654-.28 1.157-.115.503-.2.863-.253 1.081l-.08.427c-.177.587-.55.94-1.119 1.057l-.373.025h-2.61c-1.475 0-2.945-.637-4.41-1.911-1.465-1.275-2.784-2.922-3.957-4.942-1.172-2.02-2.264-4.372-3.277-7.054A1.912 1.912 0 0 1 1 5.838Zm16.013 6.513c-.373 0-.71-.096-1.013-.29-.302-.192-.453-.456-.453-.791V5.487c0-.336-.089-.574-.266-.717-.178-.142-.489-.214-.933-.214l-1.518.05c-.764 0-1.341.126-1.732.378.781.352 1.172.922 1.172 1.71v4.426a1.5 1.5 0 0 1-.533 1.044 1.59 1.59 0 0 1-1.066.414c-.532 0-.94-.243-1.225-.729C8.06 9.871 7.03 7.993 6.356 6.216l-.24-.654-3.544-.025c-.231 0-.36.013-.386.038-.027.025-.04.096-.04.213 0 .151.017.31.053.478l.56 1.409c1.491 3.638 3.112 6.505 4.862 8.6 1.75 2.096 3.468 3.144 5.155 3.144h2.665c.106 0 .186-.03.24-.088.053-.06.097-.172.133-.34l.053-.251.506-2.213c.142-.302.267-.503.373-.604a.975.975 0 0 1 .693-.277c.426 0 .861.243 1.305.73l2.265 2.716c.142.218.293.327.453.327h4.396c.533 0 .8-.126.8-.378a.466.466 0 0 0-.08-.251l-3.864-4.552c-.302-.352-.453-.73-.453-1.132s.142-.788.427-1.156c.23-.336.679-.893 1.345-1.673a37.664 37.664 0 0 0 1.745-2.188c.498-.679.826-1.295.986-1.848l.08-.327a.371.371 0 0 1-.027-.163.574.574 0 0 0-.026-.189h-4.183c-.267.1-.48.252-.64.453l-.16.478c-.444 1.156-1.607 2.942-3.49 5.356a1.892 1.892 0 0 1-1.305.503Z"></path></svg><svg fill="none" id="youtube" viewBox="0 0 28 23"><path fill="#231F20" d="m17.85 11.293-5.236-3.491a.654.654 0 0 0-1.014.545v6.982a.654.654 0 0 0 .35.578.643.643 0 0 0 .336.077.643.643 0 0 0 .329-.11l5.236-3.49a.655.655 0 0 0 0-1.091Zm-4.94 2.814V9.57l3.403 2.27-3.404 2.268Zm12.48-8.563a2.4 2.4 0 0 0-1.452-1.637C20.218 2.478 14.251 2.5 14 2.5c-.25 0-6.218-.022-9.938 1.407A2.4 2.4 0 0 0 2.61 5.544C2.327 6.613 2 8.576 2 11.838s.327 5.226.611 6.295a2.4 2.4 0 0 0 1.45 1.636c3.72 1.43 9.688 1.407 9.939 1.407h.076c.753 0 6.317-.043 9.862-1.407a2.4 2.4 0 0 0 1.451-1.636c.284-1.07.611-3.033.611-6.295s-.327-5.225-.61-6.294Zm-1.266 12.262a1.09 1.09 0 0 1-.655.741c-3.49 1.342-9.404 1.32-9.469 1.32-.065 0-5.978.022-9.469-1.32a1.09 1.09 0 0 1-.655-.741c-.261-1.004-.567-2.848-.567-5.968s.306-4.963.567-5.967a1.09 1.09 0 0 1 .655-.742C8.02 3.787 13.935 3.81 14 3.81c.066 0 5.978-.022 9.47 1.32a1.091 1.091 0 0 1 .654.742c.262 1.004.567 2.847.567 5.967 0 3.12-.305 4.964-.567 5.968Z"></path></svg></svg>