<svg xmlns="http://www.w3.org/2000/svg" width="16" height="6" fill="none"><path fill="#F1F1F1" d="M296 6c-2.504 0-3.812-1.2-4.87-2.165-.946-.861-1.641-1.487-3.116-1.487-1.503 0-2.171.626-3.117 1.487C283.84 4.8 282.532 6 280.028 6c-2.505 0-3.812-1.2-4.87-2.165-.946-.861-1.641-1.487-3.116-1.487s-2.171.626-3.117 1.487C267.868 4.8 266.56 6 264.056 6c-2.505 0-3.813-1.2-4.87-2.165-.946-.861-1.642-1.487-3.116-1.487-1.503 0-2.171.626-3.117 1.487C251.896 4.8 250.588 6 248.083 6c-2.504 0-3.812-1.2-4.869-2.165-.946-.861-1.642-1.487-3.117-1.487-1.502 0-2.17.626-3.116 1.487C235.812 4.8 234.504 6 232 6s-3.812-1.2-4.87-2.165c-.946-.861-1.641-1.487-3.116-1.487-1.503 0-2.171.626-3.117 1.487C219.84 4.8 218.532 6 216.028 6c-2.505 0-3.812-1.2-4.87-2.165-.946-.861-1.641-1.487-3.116-1.487-1.503 0-2.171.626-3.117 1.487C203.812 4.8 202.504 6 200 6s-3.812-1.2-4.87-2.165c-.946-.861-1.641-1.487-3.116-1.487-1.503 0-2.171.626-3.117 1.487C187.84 4.8 186.532 6 184.028 6c-2.505 0-3.812-1.2-4.87-2.165-.946-.861-1.641-1.487-3.116-1.487s-2.171.626-3.117 1.487C171.84 4.8 170.504 6 168 6s-3.812-1.2-4.87-2.165c-.946-.861-1.641-1.487-3.116-1.487-1.503 0-2.171.626-3.117 1.487C155.84 4.8 154.532 6 152.028 6c-2.505 0-3.812-1.2-4.87-2.165-.946-.861-1.641-1.487-3.116-1.487-1.503 0-2.171.626-3.117 1.487C139.868 4.8 138.56 6 136.056 6c-2.505 0-3.813-1.2-4.87-2.165-.946-.861-1.642-1.487-3.116-1.487-1.475 0-2.171.626-3.117 1.487C123.896 4.8 122.588 6 120.083 6c-2.504 0-3.812-1.2-4.869-2.165-.946-.861-1.642-1.487-3.117-1.487-1.502 0-2.17.626-3.116 1.487C107.923 4.8 106.616 6 104.111 6c-2.504 0-3.812-1.2-4.87-2.165-.945-.861-1.641-1.487-3.116-1.487-1.502 0-2.17.626-3.116 1.487C91.95 4.8 90.644 6 88.139 6c-2.504 0-3.812-1.2-4.87-2.165-.946-.861-1.641-1.487-3.116-1.487-1.503 0-2.17.626-3.117 1.487C75.98 4.8 74.671 6 72.167 6c-2.504 0-3.812-1.2-4.87-2.165-.946-.861-1.641-1.487-3.116-1.487s-2.17.626-3.117 1.487C60.007 4.8 58.7 6 56.194 6c-2.504 0-3.811-1.2-4.869-2.165-.946-.861-1.642-1.487-3.116-1.487-1.503 0-2.17.626-3.117 1.487C44.035 4.8 42.727 6 40.222 6c-2.504 0-3.812-1.2-4.869-2.165-.946-.861-1.642-1.487-3.116-1.487-1.503 0-2.17.626-3.117 1.487C28.063 4.8 26.755 6 24.25 6c-2.504 0-3.812-1.2-4.87-2.165-.945-.861-1.64-1.487-3.116-1.487-1.502 0-2.17.626-3.116 1.487C11.84 4.8 10.504 6 8 6S4.188 4.8 3.13 3.835C2.184 2.974 1.49 2.348.014 2.348c-1.503 0-2.17.626-3.117 1.487C-4.16 4.8-5.468 6-7.973 6c-2.504 0-3.811-1.2-4.869-2.165-.974-.861-1.67-1.487-3.144-1.487-1.503 0-2.17.626-3.117 1.487C-20.188 4.8-21.496 6-24 6V3.652c1.503 0 2.17-.626 3.116-1.487C-19.826 1.2-18.518 0-15.986 0c2.504 0 3.812 1.2 4.87 2.165.946.861 1.641 1.487 3.116 1.487 1.503 0 2.17-.626 3.116-1.487C-3.825 1.2-2.49 0 .014 0c2.504 0 3.812 1.2 4.87 2.165C5.83 3.026 6.525 3.652 8 3.652c1.503 0 2.17-.626 3.117-1.487C12.174 1.2 13.482 0 15.987 0c2.503 0 3.811 1.2 4.869 2.165.946.861 1.641 1.487 3.116 1.487 1.503 0 2.17-.626 3.117-1.487C28.146 1.2 29.454 0 31.959 0c2.504 0 3.811 1.2 4.869 2.165.946.861 1.642 1.487 3.116 1.487 1.503 0 2.17-.626 3.117-1.487C44.118 1.2 45.426 0 47.93 0c2.504 0 3.812 1.2 4.869 2.165.946.861 1.642 1.487 3.116 1.487 1.503 0 2.171-.626 3.117-1.487C60.09 1.2 61.398 0 63.903 0c2.504 0 3.812 1.2 4.87 2.165.945.861 1.64 1.487 3.116 1.487 1.502 0 2.17-.626 3.116-1.487C76.063 1.2 77.37 0 79.875 0c2.504 0 3.812 1.2 4.87 2.165.945.861 1.641 1.487 3.116 1.487s2.17-.626 3.116-1.487C92.035 1.2 93.343 0 95.847 0s3.812 1.2 4.87 2.165c.946.861 1.641 1.487 3.116 1.487 1.503 0 2.17-.626 3.117-1.487C108.007 1.2 109.315 0 111.819 0c2.504 0 3.812 1.2 4.87 2.165.946.861 1.641 1.487 3.116 1.487 1.503 0 2.171-.626 3.117-1.487C123.979 1.2 125.287 0 127.791 0c2.505 0 3.812 1.2 4.87 2.165.946.861 1.642 1.487 3.116 1.487 1.503 0 2.171-.626 3.117-1.487C139.951 1.2 141.259 0 143.763 0c2.505 0 3.813 1.2 4.87 2.165.946.861 1.642 1.487 3.117 1.487 1.502 0 2.17-.626 3.116-1.487C155.923 1.2 157.231 0 159.736 0c2.504 0 3.812 1.2 4.869 2.165.946.861 1.642 1.487 3.117 1.487 1.502 0 2.17-.626 3.116-1.487C171.896 1.2 173.203 0 175.708 0c2.504 0 3.812 1.2 4.869 2.165.946.861 1.642 1.487 3.117 1.487 1.503 0 2.17-.626 3.116-1.487C187.868 1.2 189.176 0 191.68 0s3.812 1.2 4.87 2.165c.946.861 1.641 1.487 3.116 1.487 1.503 0 2.171-.626 3.117-1.487C204.174 1.2 205.482 0 208.014 0c2.504 0 3.812 1.2 4.869 2.165.947.861 1.642 1.487 3.117 1.487s2.17-.626 3.117-1.487C220.174 1.2 221.482 0 223.986 0c2.504 0 3.812 1.2 4.87 2.165.946.861 1.641 1.487 3.116 1.487s2.171-.626 3.117-1.487C236.174 1.2 237.482 0 240.014 0s3.812 1.2 4.869 2.165c.947.861 1.642 1.487 3.117 1.487s2.17-.626 3.117-1.487C252.174 1.2 253.482 0 255.986 0c2.504 0 3.812 1.2 4.87 2.165.946.861 1.641 1.487 3.116 1.487 1.503 0 2.171-.626 3.117-1.487C268.146 1.2 269.454 0 271.958 0c2.505 0 3.812 1.2 4.87 2.165.946.861 1.642 1.487 3.116 1.487 1.475 0 2.171-.626 3.117-1.487C284.118 1.2 285.426 0 287.93 0c2.505 0 3.813 1.2 4.87 2.165.946.861 1.642 1.487 3.116 1.487V6H296Z"/></svg>