<svg xmlns="http://www.w3.org/2000/svg" width="18" height="18" fill="none" viewBox="0 0 18 18"><path fill="#000" d="m17.6932 16.0568-3.4773-3.4773C15.2386 11.25 15.75 9.6136 15.75 7.875 15.75 3.4773 12.2727 0 7.875 0S0 3.4773 0 7.875s3.4773 7.875 7.875 7.875c1.7386 0 3.375-.6136 4.7045-1.5341l3.4773 3.4773c.2046.2045.4091.3068.8182.3068.6136 0 1.125-.5114 1.125-1.125 0-.2045-.1023-.5114-.3068-.8182ZM2.25 7.875c0-3.0682 2.5568-5.625 5.625-5.625S13.5 4.8068 13.5 7.875 10.9432 13.5 7.875 13.5 2.25 10.9432 2.25 7.875Z" opacity=".2"/></svg>