<svg xmlns="http://www.w3.org/2000/svg" width="60" height="60" fill="none" viewBox="0 0 60 60"><path fill="#149080" d="M0 43.9933 27.4 60V36.5436L0 20.4362v23.5571Zm51.3-31.5101V15c0 1.8121-3.5 3.3221-7.7 3.3221-4.3 0-7.7-1.51-7.7-3.3221v-4.1275c.3 1.7114 3.6 3.1208 7.7 3.1208 4.3 0 7.7-1.5101 7.7-3.3222 0-1.812-3.5-3.3221-7.7-3.3221h-1l-5-2.9195v3.1208c0 1.8121-3.5 3.3222-7.7 3.3222-2.7 0-5-.604-6.4-1.51-.2-.2014-.4-.4028-.7-.6041-.4-.4027-.6-.8054-.6-1.208V4.5301L17.4 7.349h-1.1c-4.3 0-7.7 1.51-7.7 3.3221 0 1.8121 3.5 3.3222 7.7 3.3222 4.1 0 7.4-1.4094 7.7-3.1208V15c0 1.8121-3.5 3.3221-7.7 3.3221-4.3 0-7.7-1.51-7.7-3.3221v-2.4161l-6 3.5235 27.5 16.1074 27.4-16.0067-6.2-3.7249ZM37.7 22.7517c0 1.8121-3.5 3.3221-7.7 3.3221-4.3 0-7.7-1.51-7.7-3.3221v-4.1275c.3 1.7114 3.6 3.1208 7.7 3.1208s7.4-1.4094 7.7-3.1208v4.1275ZM32.6 36.745V60L60 43.9933v-23.255L32.6 36.745ZM29.9 6.6443c4.3 0 7.7-1.51 7.7-3.3222C37.6 1.5102 34.1 0 29.9 0c-4.3 0-7.7 1.51-7.7 3.3222 0 1.812 3.4 3.3221 7.7 3.3221Z"/></svg>