<svg xmlns="http://www.w3.org/2000/svg" width="28" height="23" fill="none" viewBox="0 0 28 23"><path fill="#231F20" d="m17.8509 11.2927-5.2364-3.4909a.6545.6545 0 0 0-1.0145.5455v6.9818a.6544.6544 0 0 0 .3491.5782.643.643 0 0 0 .3373.0764.6429.6429 0 0 0 .3281-.1091l5.2364-3.4909a.6546.6546 0 0 0 0-1.091Zm-4.9418 2.8146V9.5691l3.4036 2.2691-3.4036 2.2691Zm12.48-8.5636a2.4002 2.4002 0 0 0-1.4509-1.6364C20.2182 2.4782 14.2509 2.5 14 2.5c-.2509 0-6.2182-.0218-9.9382 1.4073A2.4 2.4 0 0 0 2.611 5.5437C2.3273 6.6127 2 8.5764 2 11.8382s.3273 5.2255.611 6.2945a2.4002 2.4002 0 0 0 1.4508 1.6364c3.72 1.4291 9.6873 1.4073 9.9382 1.4073h.0764c.7527 0 6.3163-.0437 9.8618-1.4073a2.4 2.4 0 0 0 1.4509-1.6364C25.6727 17.0637 26 15.1 26 11.8382s-.3273-5.2255-.6109-6.2945Zm-1.2655 12.2618a1.0906 1.0906 0 0 1-.6545.7418c-3.4909 1.3418-9.4036 1.32-9.4691 1.32-.0655 0-5.9782.0218-9.469-1.32a1.0904 1.0904 0 0 1-.6546-.7418c-.2619-1.0037-.5673-2.8473-.5673-5.9673 0-3.12.3054-4.9636.5673-5.9673a1.0909 1.0909 0 0 1 .6545-.7418c3.491-1.3418 9.4036-1.32 9.4691-1.32.0655 0 5.9782-.0218 9.4691 1.32a1.0915 1.0915 0 0 1 .6545.7418c.2619 1.0037.5673 2.8473.5673 5.9673 0 3.12-.3054 4.9636-.5673 5.9673Z"/></svg>